<svg data-v-423bf9ae="" xmlns="http://www.w3.org/2000/svg" viewBox="0 0 254.0784699646576 187" class="iconAboveSlogan"><!----><!----><!----><g data-v-423bf9ae="" id="7baea146-9ced-44f3-87cc-b95dee8381cb" fill="#B5988F" transform="matrix(4.441154938483768,0,0,4.441154938483768,-3.153219837908807,86.83419865746492)"><path d="M0.71 14.35L7.53 14.35L7.53 12.17L7.06 12.17L7.06 13.99L2.42 13.99L2.42 9.41L5.88 9.41L5.88 10.58L6.31 10.58L6.31 7.87L5.88 7.87L5.88 9.04L2.42 9.04L2.42 4.94L6.94 4.94L6.94 6.72L7.42 6.72L7.42 4.58L0.71 4.58L0.71 4.93L1.88 4.93L1.88 14L0.71 14ZM12.25 14.52C13.71 14.52 14.41 13.62 14.78 12.82L14.52 12.67C14.10 13.43 13.50 14.10 12.28 14.10C10.70 14.10 9.70 12.91 9.70 11.13L9.70 10.39C9.70 8.61 10.70 7.42 12.28 7.42C12.89 7.42 13.43 7.50 13.82 7.76L13.82 7.80C13.58 7.88 13.43 8.08 13.43 8.32C13.43 8.61 13.59 8.81 13.92 8.81C14.22 8.81 14.41 8.61 14.41 8.29C14.41 7.63 13.47 7.07 12.25 7.07C10.37 7.07 9.13 8.39 9.13 10.79C9.13 13.20 10.37 14.52 12.25 14.52ZM19.11 14.15C17.49 14.15 16.63 13.01 16.63 11.24L16.63 10.35C16.63 8.58 17.49 7.43 19.11 7.43C20.73 7.43 21.59 8.58 21.59 10.35L21.59 11.24C21.59 13.01 20.73 14.15 19.11 14.15ZM19.11 14.52C21.01 14.52 22.18 13.20 22.18 10.79C22.18 8.39 21.01 7.07 19.11 7.07C17.21 7.07 16.04 8.39 16.04 10.79C16.04 13.20 17.21 14.52 19.11 14.52ZM30.23 14.52C32.35 14.52 33.40 13.43 33.40 11.82C33.40 10.58 32.76 9.70 30.86 9.20L29.95 8.95C28.73 8.62 27.78 8.13 27.78 6.83C27.78 5.53 28.66 4.79 30.27 4.79C31.84 4.79 32.76 5.49 32.76 6.52L32.76 7.41L33.24 7.41L33.24 4.58L32.76 4.58L32.76 5.53L32.70 5.53C32.44 4.98 31.71 4.41 30.27 4.41C28.45 4.41 27.26 5.28 27.26 6.89C27.26 8.15 27.94 8.97 29.82 9.48L30.74 9.73C31.92 10.04 32.89 10.53 32.89 11.91C32.89 13.31 32.00 14.14 30.16 14.14C28.28 14.14 27.64 13.29 27.64 12.21L27.64 11.38L27.16 11.38L27.16 14.35L27.64 14.35L27.64 13.33L27.69 13.33C27.99 13.94 28.64 14.52 30.23 14.52ZM34.80 14.35L37.65 14.35L37.65 14L36.48 14L36.48 9.25C36.48 8.04 37.48 7.46 38.56 7.46C39.89 7.46 40.57 8.20 40.57 9.83L40.57 14L39.41 14L39.41 14.35L42.25 14.35L42.25 14L41.09 14L41.09 9.76C41.09 7.98 40.33 7.07 38.70 7.07C37.44 7.07 36.78 7.70 36.53 8.37L36.48 8.37L36.48 3.64L34.80 3.85L34.80 4.10L35.97 4.20L35.97 14L34.80 14ZM46.54 14.15C44.91 14.15 44.06 13.01 44.06 11.24L44.06 10.35C44.06 8.58 44.91 7.43 46.54 7.43C48.16 7.43 49.01 8.58 49.01 10.35L49.01 11.24C49.01 13.01 48.16 14.15 46.54 14.15ZM46.54 14.52C48.44 14.52 49.60 13.20 49.60 10.79C49.60 8.39 48.44 7.07 46.54 7.07C44.63 7.07 43.47 8.39 43.47 10.79C43.47 13.20 44.63 14.52 46.54 14.52ZM50.95 17.15L54.07 17.15L54.07 16.80L52.63 16.80L52.63 13.19L52.67 13.19C52.96 13.89 53.70 14.52 54.94 14.52C56.78 14.52 57.92 13.26 57.92 10.79C57.92 8.33 56.78 7.07 54.94 7.07C53.72 7.07 52.96 7.70 52.67 8.40L52.63 8.40L52.63 7.13L50.95 7.34L50.95 7.59L52.11 7.69L52.11 16.80L50.95 16.80ZM54.85 14.13C53.70 14.13 52.63 13.43 52.63 12.35L52.63 9.24C52.63 8.16 53.70 7.46 54.85 7.46C56.45 7.46 57.34 8.60 57.34 10.40L57.34 11.19C57.34 12.99 56.45 14.13 54.85 14.13Z"></path></g><!----><g data-v-423bf9ae="" id="6ee471f7-7a0b-44fd-865e-76e43b82f46a" transform="matrix(2.8125,0,0,2.8125,83,0)" stroke="none" fill="#B5988F"><path d="M4.029 14.362L14.362 4.028l.707.707L4.736 15.07zM17.135 27.47L27.47 17.135l.707.707-10.333 10.333zM4.029 17.841l.707-.707 10.333 10.334-.707.707zM17.135 4.735l.708-.707L28.176 14.36l-.707.707z"></path><g><path d="M16 1.414l1.683 1.683L16 4.779l-1.683-1.683L16 1.414M16 0l-3.097 3.097L16 6.194l3.097-3.097L16 0zM16 27.221l1.683 1.683L16 30.586l-1.683-1.683L16 27.221m0-1.415l-3.097 3.097L16 32l3.097-3.097L16 25.806zM3.097 14.317L4.779 16l-1.683 1.683L1.414 16l1.683-1.683m0-1.414L0 16l3.097 3.097L6.194 16l-3.097-3.097zM28.903 14.317L30.586 16l-1.683 1.683L27.221 16l1.682-1.683m0-1.414L25.806 16l3.097 3.097L32 16l-3.097-3.097z"></path></g></g><!----><g data-v-423bf9ae="" id="a049f4a9-50a3-4ce5-952b-7467ee4e118b" fill="#B5988F" transform="matrix(0.8978883409932491,0,0,0.8978883409932491,32.87476236737979,200.37421762386145)"><path d="M7.20 9.21L7.20 9.21L7.20 9.21Q7.66 9.21 7.92 9.46L7.92 9.46L7.92 9.46Q8.18 9.72 8.18 10.16L8.18 10.16L8.18 10.16Q8.18 10.28 8.15 10.39L8.15 10.39L8.15 10.39Q8.13 10.51 8.11 10.60L8.11 10.60L8.11 10.60Q7.92 10.57 7.70 10.55L7.70 10.55L7.70 10.55Q7.48 10.53 7.17 10.53L7.17 10.53L7.17 10.53Q6.57 10.53 5.95 10.63L5.95 10.63L5.95 10.63Q5.33 10.74 4.77 10.81L4.77 10.81L4.77 10.81Q4.45 11.55 4.19 12.24L4.19 12.24L4.19 12.24Q3.92 12.94 3.73 13.51L3.73 13.51L3.73 13.51Q3.54 14.08 3.44 14.50L3.44 14.50L3.44 14.50Q3.33 14.92 3.32 15.13L3.32 15.13L3.32 15.13Q4.45 14.90 5.61 14.73L5.61 14.73L5.61 14.73Q6.76 14.56 8.04 14.48L8.04 14.48L8.04 14.48Q8.19 14.71 8.29 14.99L8.29 14.99L8.29 14.99Q8.40 15.27 8.40 15.60L8.40 15.60L8.40 15.60Q8.40 15.68 8.40 15.78L8.40 15.78L8.40 15.78Q8.40 15.88 8.37 15.97L8.37 15.97L8.37 15.97Q7.98 15.96 7.55 15.95L7.55 15.95L7.55 15.95Q7.11 15.95 6.41 15.95L6.41 15.95L6.41 15.95Q5.95 15.95 5.54 15.97L5.54 15.97L5.54 15.97Q5.12 15.99 4.70 16.03L4.70 16.03L4.70 16.03Q4.28 16.07 3.81 16.14L3.81 16.14L3.81 16.14Q3.35 16.21 2.76 16.31L2.76 16.31L2.76 16.31Q2.11 16.06 1.51 15.08L1.51 15.08L1.51 15.08Q1.75 14.57 2.18 13.54L2.18 13.54L2.18 13.54Q2.60 12.52 3.26 10.79L3.26 10.79L3.26 10.79Q2.63 10.60 2.44 10.09L2.44 10.09L2.44 10.09Q2.51 10.02 2.84 9.92L2.84 9.92L2.84 9.92Q3.18 9.81 3.67 9.70L3.67 9.70L3.67 9.70Q3.88 9.16 4.03 8.75L4.03 8.75L4.03 8.75Q4.17 8.34 4.28 7.99L4.28 7.99L4.28 7.99Q4.40 7.63 4.49 7.29L4.49 7.29L4.49 7.29Q4.58 6.94 4.66 6.54L4.66 6.54L4.66 6.54Q4.17 6.51 3.89 6.27L3.89 6.27L3.89 6.27Q3.61 6.02 3.61 5.63L3.61 5.63L3.61 5.63Q3.61 5.52 3.65 5.36L3.65 5.36L3.65 5.36Q3.68 5.21 3.72 5.10L3.72 5.10L3.72 5.10Q4.00 5.14 4.26 5.15L4.26 5.15L4.26 5.15Q4.52 5.17 4.94 5.17L4.94 5.17L4.94 5.17Q5.82 5.17 6.59 5.12L6.59 5.12L6.59 5.12Q7.36 5.07 7.99 5.01L7.99 5.01L7.99 5.01Q8.61 4.96 9.06 4.91L9.06 4.91L9.06 4.91Q9.51 4.86 9.74 4.86L9.74 4.86L9.74 4.86Q10.07 4.86 10.32 5.19L10.32 5.19L10.32 5.19Q10.57 5.53 10.70 6.15L10.70 6.15L10.70 6.15Q10.26 6.10 9.99 6.09L9.99 6.09L9.99 6.09Q9.72 6.08 9.51 6.08L9.51 6.08L9.51 6.08Q8.74 6.08 8.10 6.15L8.10 6.15L8.10 6.15Q7.46 6.23 6.87 6.31L6.87 6.31L6.87 6.31Q6.79 6.44 6.69 6.64L6.69 6.64L6.69 6.64Q6.58 6.83 6.41 7.18L6.41 7.18L6.41 7.18Q6.24 7.53 6.00 8.06L6.00 8.06L6.00 8.06Q5.75 8.60 5.40 9.39L5.40 9.39L5.40 9.39Q5.94 9.31 6.41 9.26L6.41 9.26L6.41 9.26Q6.87 9.21 7.20 9.21ZM17.37 12.43L17.37 12.43L17.37 12.43Q17.37 11.45 17.61 10.51L17.61 10.51L17.61 10.51Q17.84 9.56 18.26 8.71L18.26 8.71L18.26 8.71Q18.68 7.87 19.26 7.16L19.26 7.16L19.26 7.16Q19.84 6.45 20.53 5.94L20.53 5.94L20.53 5.94Q21.22 5.42 22.01 5.13L22.01 5.13L22.01 5.13Q22.79 4.84 23.62 4.84L23.62 4.84L23.62 4.84Q24.58 4.84 25.12 5.25L25.12 5.25L25.12 5.25Q25.66 5.66 25.66 6.38L25.66 6.38L25.66 6.38Q25.66 6.66 25.59 6.96L25.59 6.96L25.59 6.96Q25.51 7.25 25.36 7.54L25.36 7.54L25.36 7.54Q25.21 7.83 25.02 8.09L25.02 8.09L25.02 8.09Q24.82 8.36 24.58 8.55L24.58 8.55L24.58 8.55Q24.22 8.50 23.95 8.22L23.95 8.22L23.95 8.22Q23.69 7.95 23.62 7.59L23.62 7.59L23.62 7.59Q24.11 7.18 24.39 6.74L24.39 6.74L24.39 6.74Q24.68 6.30 24.68 5.94L24.68 5.94L24.68 5.94Q24.68 5.32 23.91 5.32L23.91 5.32L23.91 5.32Q23.59 5.32 23.25 5.45L23.25 5.45L23.25 5.45Q22.90 5.59 22.55 5.82L22.55 5.82L22.55 5.82Q22.20 6.06 21.88 6.40L21.88 6.40L21.88 6.40Q21.55 6.73 21.27 7.14L21.27 7.14L21.27 7.14Q19.32 9.94 19.32 12.87L19.32 12.87L19.32 12.87Q19.32 13.90 19.64 14.53L19.64 14.53L19.64 14.53Q19.96 15.16 20.50 15.27L20.50 15.27L20.50 15.27Q21.10 15.13 22.02 14.50L22.02 14.50L22.02 14.50Q22.95 13.87 24.04 12.87L24.04 12.87L24.04 12.87Q24.18 13.01 24.21 13.16L24.21 13.16L24.21 13.16Q23.80 13.69 23.37 14.18L23.37 14.18L23.37 14.18Q22.93 14.67 22.50 15.08L22.50 15.08L22.50 15.08Q22.08 15.48 21.66 15.79L21.66 15.79L21.66 15.79Q21.25 16.10 20.90 16.27L20.90 16.27L20.90 16.27Q19.17 16.24 18.27 15.27L18.27 15.27L18.27 15.27Q17.37 14.31 17.37 12.43ZM38.71 4.98L38.71 4.98L38.71 4.98Q38.98 5.10 39.26 5.27L39.26 5.27L39.26 5.27Q39.54 5.45 39.77 5.63L39.77 5.63L39.77 5.63Q40.01 5.81 40.17 5.98L40.17 5.98L40.17 5.98Q40.33 6.16 40.35 6.27L40.35 6.27L40.35 6.27Q40.11 6.22 39.87 6.20L39.87 6.20L39.87 6.20Q39.63 6.17 39.44 6.17L39.44 6.17L39.44 6.17Q38.81 6.17 38.19 6.48L38.19 6.48L38.19 6.48Q37.56 6.79 37.00 7.32L37.00 7.32L37.00 7.32Q36.44 7.85 35.97 8.57L35.97 8.57L35.97 8.57Q35.49 9.28 35.15 10.09L35.15 10.09L35.15 10.09Q34.80 10.91 34.61 11.77L34.61 11.77L34.61 11.77Q34.41 12.64 34.41 13.48L34.41 13.48L34.41 13.48Q34.41 14.57 34.78 15.11L34.78 15.11L34.78 15.11Q35.14 15.64 35.84 15.64L35.84 15.64L35.84 15.64Q36.18 15.64 36.57 15.51L36.57 15.51L36.57 15.51Q36.96 15.37 37.37 15.13L37.37 15.13L37.37 15.13Q37.77 14.90 38.16 14.56L38.16 14.56L38.16 14.56Q38.56 14.22 38.89 13.82L38.89 13.82L38.89 13.82Q39.38 13.23 39.77 12.48L39.77 12.48L39.77 12.48Q40.17 11.73 40.44 10.89L40.44 10.89L40.44 10.89Q40.71 10.05 40.86 9.16L40.86 9.16L40.86 9.16Q41.01 8.27 41.01 7.42L41.01 7.42L41.01 7.42Q41.01 7.08 40.99 6.85L40.99 6.85L40.99 6.85Q40.98 6.62 40.96 6.46L40.96 6.46L40.96 6.46Q40.94 6.30 40.92 6.20L40.92 6.20L40.92 6.20Q40.91 6.10 40.89 6.03L40.89 6.03L40.89 6.03Q41.06 6.12 41.27 6.24L41.27 6.24L41.27 6.24Q41.47 6.36 41.64 6.59L41.64 6.59L41.64 6.59Q41.82 6.82 41.94 7.20L41.94 7.20L41.94 7.20Q42.06 7.57 42.06 8.18L42.06 8.18L42.06 8.18Q42.06 9.16 41.83 10.10L41.83 10.10L41.83 10.10Q41.59 11.05 41.18 11.90L41.18 11.90L41.18 11.90Q40.77 12.75 40.21 13.50L40.21 13.50L40.21 13.50Q39.65 14.24 39.00 14.80L39.00 14.80L39.00 14.80Q38.16 15.54 37.21 15.95L37.21 15.95L37.21 15.95Q36.26 16.35 35.38 16.35L35.38 16.35L35.38 16.35Q34.09 16.35 33.41 15.53L33.41 15.53L33.41 15.53Q32.73 14.71 32.73 13.12L32.73 13.12L32.73 13.12Q32.73 12.26 32.92 11.31L32.92 11.31L32.92 11.31Q33.11 10.36 33.45 9.44L33.45 9.44L33.45 9.44Q33.80 8.51 34.27 7.68L34.27 7.68L34.27 7.68Q34.75 6.85 35.31 6.21L35.31 6.21L35.31 6.21Q35.88 5.57 36.53 5.19L36.53 5.19L36.53 5.19Q37.18 4.82 37.87 4.82L37.87 4.82L37.87 4.82Q38.09 4.82 38.29 4.85L38.29 4.85L38.29 4.85Q38.49 4.89 38.71 4.98ZM60.87 12.50L60.87 12.50L60.87 12.50Q60.69 12.47 60.48 12.33L60.48 12.33L60.48 12.33Q60.27 12.19 60.21 12.04L60.21 12.04L60.21 12.04Q60.21 11.90 60.26 11.68L60.26 11.68L60.26 11.68Q60.30 11.45 60.36 11.23L60.36 11.23L60.36 11.23Q60.42 11.00 60.48 10.80L60.48 10.80L60.48 10.80Q60.54 10.60 60.56 10.50L60.56 10.50L60.56 10.50Q60.69 10.50 60.91 10.57L60.91 10.57L60.91 10.57Q61.12 10.64 61.35 10.76L61.35 10.76L61.35 10.76Q61.59 10.88 61.78 11.03L61.78 11.03L61.78 11.03Q61.98 11.19 62.09 11.35L62.09 11.35L62.09 11.35Q61.99 11.59 61.82 11.80L61.82 11.80L61.82 11.80Q61.66 12.01 61.48 12.17L61.48 12.17L61.48 12.17Q61.31 12.32 61.14 12.41L61.14 12.41L61.14 12.41Q60.97 12.50 60.87 12.50ZM89.87 7.46L89.87 7.46L89.87 7.46Q89.87 8.33 89.39 9.01L89.39 9.01L89.39 9.01Q88.91 9.69 88.09 10.14L88.09 10.14L88.09 10.14Q88.62 10.50 88.93 11.03L88.93 11.03L88.93 11.03Q89.25 11.55 89.25 12.18L89.25 12.18L89.25 12.18Q89.25 12.94 88.79 13.67L88.79 13.67L88.79 13.67Q88.34 14.41 87.58 14.97L87.58 14.97L87.58 14.97Q86.83 15.54 85.86 15.89L85.86 15.89L85.86 15.89Q84.90 16.24 83.89 16.24L83.89 16.24L83.89 16.24Q82.80 16.24 81.98 15.83L81.98 15.83L81.98 15.83Q81.16 15.41 80.70 14.66L80.70 14.66L80.70 14.66Q80.84 14.24 81.07 13.62L81.07 13.62L81.07 13.62Q81.30 12.99 81.58 12.30L81.58 12.30L81.58 12.30Q81.86 11.61 82.14 10.92L82.14 10.92L82.14 10.92Q82.43 10.23 82.68 9.69L82.68 9.69L82.68 9.69Q83.22 8.50 83.64 7.71L83.64 7.71L83.64 7.71Q84.06 6.93 84.41 6.47L84.41 6.47L84.41 6.47Q83.64 6.71 83.01 7.01L83.01 7.01L83.01 7.01Q82.38 7.31 82.08 7.59L82.08 7.59L82.08 7.59Q81.96 7.50 81.82 7.34L81.82 7.34L81.82 7.34Q81.69 7.17 81.57 6.96L81.57 6.96L81.57 6.96Q81.45 6.76 81.37 6.55L81.37 6.55L81.37 6.55Q81.30 6.34 81.28 6.17L81.28 6.17L81.28 6.17Q81.65 5.92 82.23 5.69L82.23 5.69L82.23 5.69Q82.81 5.46 83.50 5.29L83.50 5.29L83.50 5.29Q84.18 5.12 84.90 5.03L84.90 5.03L84.90 5.03Q85.62 4.93 86.28 4.93L86.28 4.93L86.28 4.93Q87.96 4.93 88.91 5.60L88.91 5.60L88.91 5.60Q89.87 6.27 89.87 7.46ZM84.53 10.81L84.53 10.81L84.53 10.81Q84.27 10.68 84.04 10.43L84.04 10.43L84.04 10.43Q83.72 11.14 83.43 11.83L83.43 11.83L83.43 11.83Q83.15 12.52 82.92 13.10L82.92 13.10L82.92 13.10Q82.70 13.69 82.56 14.13L82.56 14.13L82.56 14.13Q82.42 14.56 82.40 14.76L82.40 14.76L82.40 14.76Q82.60 14.87 82.87 14.92L82.87 14.92L82.87 14.92Q83.15 14.98 83.55 14.98L83.55 14.98L83.55 14.98Q84.50 14.98 85.37 14.71L85.37 14.71L85.37 14.71Q86.24 14.45 86.90 13.99L86.90 13.99L86.90 13.99Q87.56 13.54 87.95 12.95L87.95 12.95L87.95 12.95Q88.34 12.36 88.34 11.72L88.34 11.72L88.34 11.72Q88.34 10.79 87.54 10.39L87.54 10.39L87.54 10.39Q86.45 10.84 85.08 10.84L85.08 10.84L85.08 10.84Q84.88 10.84 84.78 10.84L84.78 10.84L84.78 10.84Q84.67 10.84 84.53 10.81ZM87.25 5.95L87.25 5.95L87.25 5.95Q86.95 5.95 86.62 5.98L86.62 5.98L86.62 5.98Q86.30 6.02 85.93 6.09L85.93 6.09L85.93 6.09Q85.99 6.15 86.02 6.21L86.02 6.21L86.02 6.21Q86.06 6.27 86.09 6.34L86.09 6.34L86.09 6.34Q85.96 6.51 85.78 6.83L85.78 6.83L85.78 6.83Q85.60 7.15 85.37 7.58L85.37 7.58L85.37 7.58Q85.15 8.01 84.90 8.53L84.90 8.53L84.90 8.53Q84.66 9.04 84.41 9.59L84.41 9.59L84.41 9.59Q84.64 9.53 84.99 9.50L84.99 9.50L84.99 9.50Q85.33 9.46 85.67 9.46L85.67 9.46L85.67 9.46Q85.85 9.46 86.02 9.48L86.02 9.48L86.02 9.48Q86.20 9.49 86.37 9.52L86.37 9.52L86.37 9.52Q87.04 9.41 87.58 9.19L87.58 9.19L87.58 9.19Q88.12 8.97 88.51 8.69L88.51 8.69L88.51 8.69Q88.90 8.40 89.11 8.05L89.11 8.05L89.11 8.05Q89.32 7.70 89.32 7.31L89.32 7.31L89.32 7.31Q89.32 6.64 88.79 6.29L88.79 6.29L88.79 6.29Q88.26 5.95 87.25 5.95ZM97.71 14.38L97.71 14.38L97.71 14.38Q97.71 13.87 97.87 13.07L97.87 13.07L97.87 13.07Q98.03 12.26 98.29 11.33L98.29 11.33L98.29 11.33Q98.55 10.40 98.88 9.43L98.88 9.43L98.88 9.43Q99.22 8.46 99.57 7.60L99.57 7.60L99.57 7.60Q99.92 6.75 100.25 6.10L100.25 6.10L100.25 6.10Q100.59 5.46 100.86 5.18L100.86 5.18L100.86 5.18Q101.00 5.19 101.23 5.29L101.23 5.29L101.23 5.29Q101.46 5.38 101.70 5.50L101.70 5.50L101.70 5.50Q101.93 5.63 102.13 5.78L102.13 5.78L102.13 5.78Q102.33 5.92 102.38 6.05L102.38 6.05L102.38 6.05Q101.98 6.41 101.58 7.15L101.58 7.15L101.58 7.15Q101.18 7.88 100.81 8.82L100.81 8.82L100.81 8.82Q100.44 9.76 100.11 10.80L100.11 10.80L100.11 10.80Q99.79 11.84 99.55 12.82L99.55 12.82L99.55 12.82Q99.32 13.80 99.18 14.64L99.18 14.64L99.18 14.64Q99.05 15.48 99.05 16.00L99.05 16.00L99.05 16.00Q99.05 16.24 99.09 16.30L99.09 16.30L99.09 16.30Q98.78 16.28 98.64 16.19L98.64 16.19L98.64 16.19Q98.50 16.10 98.43 16.00L98.43 16.00L98.43 16.00Q98.35 15.89 98.29 15.79L98.29 15.79L98.29 15.79Q98.22 15.68 98.10 15.62L98.10 15.62L98.10 15.62Q98.00 15.58 97.93 15.43L97.93 15.43L97.93 15.43Q97.86 15.27 97.81 15.09L97.81 15.09L97.81 15.09Q97.76 14.90 97.73 14.70L97.73 14.70L97.73 14.70Q97.71 14.50 97.71 14.38ZM115.15 4.98L115.15 4.98L115.15 4.98Q115.42 5.10 115.70 5.27L115.70 5.27L115.70 5.27Q115.98 5.45 116.21 5.63L116.21 5.63L116.21 5.63Q116.45 5.81 116.61 5.98L116.61 5.98L116.61 5.98Q116.77 6.16 116.79 6.27L116.79 6.27L116.79 6.27Q116.55 6.22 116.31 6.20L116.31 6.20L116.31 6.20Q116.07 6.17 115.88 6.17L115.88 6.17L115.88 6.17Q115.25 6.17 114.62 6.48L114.62 6.48L114.62 6.48Q114.00 6.79 113.44 7.32L113.44 7.32L113.44 7.32Q112.88 7.85 112.41 8.57L112.41 8.57L112.41 8.57Q111.93 9.28 111.59 10.09L111.59 10.09L111.59 10.09Q111.24 10.91 111.05 11.77L111.05 11.77L111.05 11.77Q110.85 12.64 110.85 13.48L110.85 13.48L110.85 13.48Q110.85 14.57 111.22 15.11L111.22 15.11L111.22 15.11Q111.58 15.64 112.28 15.64L112.28 15.64L112.28 15.64Q112.62 15.64 113.01 15.51L113.01 15.51L113.01 15.51Q113.40 15.37 113.81 15.13L113.81 15.13L113.81 15.13Q114.21 14.90 114.60 14.56L114.60 14.56L114.60 14.56Q115.00 14.22 115.33 13.82L115.33 13.82L115.33 13.82Q115.82 13.23 116.21 12.48L116.21 12.48L116.21 12.48Q116.61 11.73 116.88 10.89L116.88 10.89L116.88 10.89Q117.15 10.05 117.30 9.16L117.30 9.16L117.30 9.16Q117.45 8.27 117.45 7.42L117.45 7.42L117.45 7.42Q117.45 7.08 117.43 6.85L117.43 6.85L117.43 6.85Q117.42 6.62 117.40 6.46L117.40 6.46L117.40 6.46Q117.38 6.30 117.36 6.20L117.36 6.20L117.36 6.20Q117.35 6.10 117.33 6.03L117.33 6.03L117.33 6.03Q117.50 6.12 117.70 6.24L117.70 6.24L117.70 6.24Q117.91 6.36 118.08 6.59L118.08 6.59L118.08 6.59Q118.26 6.82 118.38 7.20L118.38 7.20L118.38 7.20Q118.50 7.57 118.50 8.18L118.50 8.18L118.50 8.18Q118.50 9.16 118.26 10.10L118.26 10.10L118.26 10.10Q118.03 11.05 117.62 11.90L117.62 11.90L117.62 11.90Q117.21 12.75 116.65 13.50L116.65 13.50L116.65 13.50Q116.09 14.24 115.44 14.80L115.44 14.80L115.44 14.80Q114.60 15.54 113.65 15.95L113.65 15.95L113.65 15.95Q112.70 16.35 111.82 16.35L111.82 16.35L111.82 16.35Q110.53 16.35 109.85 15.53L109.85 15.53L109.85 15.53Q109.17 14.71 109.17 13.12L109.17 13.12L109.17 13.12Q109.17 12.26 109.36 11.31L109.36 11.31L109.36 11.31Q109.55 10.36 109.89 9.44L109.89 9.44L109.89 9.44Q110.24 8.51 110.71 7.68L110.71 7.68L110.71 7.68Q111.19 6.85 111.75 6.21L111.75 6.21L111.75 6.21Q112.32 5.57 112.97 5.19L112.97 5.19L112.97 5.19Q113.62 4.82 114.31 4.82L114.31 4.82L114.31 4.82Q114.53 4.82 114.73 4.85L114.73 4.85L114.73 4.85Q114.93 4.89 115.15 4.98ZM137.31 12.50L137.31 12.50L137.31 12.50Q137.13 12.47 136.92 12.33L136.92 12.33L136.92 12.33Q136.71 12.19 136.65 12.04L136.65 12.04L136.65 12.04Q136.65 11.90 136.70 11.68L136.70 11.68L136.70 11.68Q136.74 11.45 136.80 11.23L136.80 11.23L136.80 11.23Q136.86 11.00 136.92 10.80L136.92 10.80L136.92 10.80Q136.98 10.60 137.00 10.50L137.00 10.50L137.00 10.50Q137.13 10.50 137.35 10.57L137.35 10.57L137.35 10.57Q137.56 10.64 137.79 10.76L137.79 10.76L137.79 10.76Q138.03 10.88 138.22 11.03L138.22 11.03L138.22 11.03Q138.42 11.19 138.53 11.35L138.53 11.35L138.53 11.35Q138.43 11.59 138.26 11.80L138.26 11.80L138.26 11.80Q138.10 12.01 137.92 12.17L137.92 12.17L137.92 12.17Q137.75 12.32 137.58 12.41L137.58 12.41L137.58 12.41Q137.41 12.50 137.31 12.50ZM161.91 4.83L161.91 4.83L161.91 4.83Q162.44 4.83 163.02 5.03L163.02 5.03L163.02 5.03Q163.59 5.22 164.02 5.53L164.02 5.53L164.02 5.53Q163.88 6.24 163.76 6.82L163.76 6.82L163.76 6.82Q163.65 7.39 163.55 7.86L163.55 7.86L163.55 7.86Q163.45 8.33 163.36 8.71L163.36 8.71L163.36 8.71Q163.27 9.10 163.18 9.44L163.18 9.44L163.18 9.44Q162.85 10.70 162.49 11.71L162.49 11.71L162.49 11.71Q162.13 12.73 161.73 13.54L161.73 13.54L161.73 13.54Q161.34 14.35 160.89 14.98L160.89 14.98L160.89 14.98Q160.45 15.61 159.95 16.09L159.95 16.09L159.95 16.09Q159.46 16.55 158.97 16.84L158.97 16.84L158.97 16.84Q158.48 17.14 158.06 17.22L158.06 17.22L158.06 17.22Q157.50 17.22 157.02 17.09L157.02 17.09L157.02 17.09Q156.55 16.97 156.20 16.75L156.20 16.75L156.20 16.75Q155.86 16.53 155.67 16.23L155.67 16.23L155.67 16.23Q155.48 15.93 155.48 15.57L155.48 15.57L155.48 15.57Q155.48 15.18 155.68 14.58L155.68 14.58L155.68 14.58Q155.88 13.99 156.28 13.17L156.28 13.17L156.28 13.17Q156.45 13.19 156.67 13.26L156.67 13.26L156.67 13.26Q156.90 13.33 157.12 13.43L157.12 13.43L157.12 13.43Q157.35 13.52 157.53 13.64L157.53 13.64L157.53 13.64Q157.71 13.76 157.79 13.87L157.79 13.87L157.79 13.87Q157.35 14.34 157.07 14.89L157.07 14.89L157.07 14.89Q156.79 15.44 156.79 15.85L156.79 15.85L156.79 15.85Q156.79 16.09 156.88 16.27L156.88 16.27L156.88 16.27Q156.97 16.46 157.19 16.62L157.19 16.62L157.19 16.62Q158.05 16.30 158.86 15.42L158.86 15.42L158.86 15.42Q159.67 14.55 160.30 13.24L160.30 13.24L160.30 13.24Q160.68 12.47 160.99 11.48L160.99 11.48L160.99 11.48Q161.29 10.49 161.51 9.48L161.51 9.48L161.51 9.48Q161.73 8.48 161.85 7.57L161.85 7.57L161.85 7.57Q161.97 6.65 161.97 6.02L161.97 6.02L161.97 6.02Q161.97 5.92 161.96 5.75L161.96 5.75L161.96 5.75Q161.95 5.57 161.94 5.38L161.94 5.38L161.94 5.38Q161.94 5.19 161.92 5.04L161.92 5.04L161.92 5.04Q161.91 4.89 161.91 4.83ZM176.20 5.75L176.20 5.75L176.20 5.75Q175.59 6.58 175.08 7.57L175.08 7.57L175.08 7.57Q174.58 8.57 174.22 9.61L174.22 9.61L174.22 9.61Q173.87 10.65 173.68 11.67L173.68 11.67L173.68 11.67Q173.49 12.68 173.49 13.57L173.49 13.57L173.49 13.57Q173.49 14.66 173.81 15.15L173.81 15.15L173.81 15.15Q174.13 15.64 174.92 15.64L174.92 15.64L174.92 15.64Q175.83 15.64 176.51 15.00L176.51 15.00L176.51 15.00Q177.20 14.36 177.80 13.24L177.80 13.24L177.80 13.24Q178.19 12.52 178.47 11.65L178.47 11.65L178.47 11.65Q178.75 10.78 178.93 9.86L178.93 9.86L178.93 9.86Q179.10 8.95 179.19 8.02L179.19 8.02L179.19 8.02Q179.27 7.08 179.27 6.23L179.27 6.23L179.27 6.23Q179.27 5.68 179.26 5.43L179.26 5.43L179.26 5.43Q179.24 5.18 179.21 5.03L179.21 5.03L179.21 5.03Q179.26 5.03 179.42 5.05L179.42 5.05L179.42 5.05Q179.59 5.08 179.81 5.12L179.81 5.12L179.81 5.12Q180.03 5.17 180.24 5.24L180.24 5.24L180.24 5.24Q180.46 5.31 180.61 5.39L180.61 5.39L180.61 5.39Q180.54 6.45 180.35 7.59L180.35 7.59L180.35 7.59Q180.17 8.72 179.86 9.83L179.86 9.83L179.86 9.83Q179.55 10.93 179.14 11.96L179.14 11.96L179.14 11.96Q178.74 12.98 178.23 13.79L178.23 13.79L178.23 13.79Q177.49 14.99 176.57 15.67L176.57 15.67L176.57 15.67Q175.64 16.35 174.38 16.35L174.38 16.35L174.38 16.35Q173.10 16.35 172.38 15.60L172.38 15.60L172.38 15.60Q171.67 14.85 171.67 13.33L171.67 13.33L171.67 13.33Q171.67 12.45 171.86 11.33L171.86 11.33L171.86 11.33Q172.06 10.22 172.39 9.07L172.39 9.07L172.39 9.07Q172.72 7.91 173.15 6.81L173.15 6.81L173.15 6.81Q173.59 5.71 174.06 4.84L174.06 4.84L174.06 4.84Q174.30 4.86 174.62 4.94L174.62 4.94L174.62 4.94Q174.94 5.03 175.25 5.16L175.25 5.16L175.25 5.16Q175.56 5.29 175.82 5.45L175.82 5.45L175.82 5.45Q176.08 5.61 176.20 5.75ZM196.71 5.74L196.71 5.74L196.71 5.74Q196.76 5.98 196.78 6.07L196.78 6.07L196.78 6.07Q196.80 6.16 196.80 6.31L196.80 6.31L196.80 6.31Q196.80 6.78 196.59 7.18L196.59 7.18L196.59 7.18Q196.39 7.57 196.04 7.74L196.04 7.74L196.04 7.74Q195.76 7.36 195.36 7.09L195.36 7.09L195.36 7.09Q194.95 6.82 194.47 6.64L194.47 6.64L194.47 6.64Q193.98 6.47 193.47 6.38L193.47 6.38L193.47 6.38Q192.95 6.30 192.46 6.30L192.46 6.30L192.46 6.30Q191.97 6.30 191.54 6.38L191.54 6.38L191.54 6.38Q191.11 6.45 190.78 6.59L190.78 6.59L190.78 6.59Q190.46 6.72 190.27 6.92L190.27 6.92L190.27 6.92Q190.08 7.11 190.08 7.36L190.08 7.36L190.08 7.36Q190.12 7.67 190.46 7.99L190.46 7.99L190.46 7.99Q190.79 8.30 191.28 8.60L191.28 8.60L191.28 8.60Q191.77 8.90 192.37 9.20L192.37 9.20L192.37 9.20Q192.96 9.49 193.54 9.76L193.54 9.76L193.54 9.76Q194.25 10.09 194.77 10.38L194.77 10.38L194.77 10.38Q195.29 10.67 195.62 11.01L195.62 11.01L195.62 11.01Q195.96 11.35 196.13 11.79L196.13 11.79L196.13 11.79Q196.29 12.22 196.29 12.84L196.29 12.84L196.29 12.84Q196.29 13.55 196.06 14.18L196.06 14.18L196.06 14.18Q195.82 14.80 195.36 15.26L195.36 15.26L195.36 15.26Q194.91 15.72 194.26 15.98L194.26 15.98L194.26 15.98Q193.62 16.24 192.82 16.24L192.82 16.24L192.82 16.24Q192.04 16.24 191.13 16.00L191.13 16.00L191.13 16.00Q190.22 15.76 189.43 15.35L189.43 15.35L189.43 15.35Q188.64 14.94 188.11 14.40L188.11 14.40L188.11 14.40Q187.59 13.86 187.59 13.26L187.59 13.26L187.59 13.26Q187.59 12.98 187.75 12.54L187.75 12.54L187.75 12.54Q187.91 12.11 188.33 11.63L188.33 11.63L188.33 11.63Q188.37 12.05 188.78 12.63L188.78 12.63L188.78 12.63Q189.20 13.20 190.02 13.69L190.02 13.69L190.02 13.69Q190.79 14.14 191.61 14.34L191.61 14.34L191.61 14.34Q192.43 14.55 193.14 14.55L193.14 14.55L193.14 14.55Q193.93 14.55 194.42 14.35L194.42 14.35L194.42 14.35Q194.91 14.15 195.19 13.88L195.19 13.88L195.19 13.88Q195.47 13.61 195.58 13.33L195.58 13.33L195.58 13.33Q195.69 13.05 195.71 12.88L195.71 12.88L195.71 12.88Q195.69 12.60 195.45 12.34L195.45 12.34L195.45 12.34Q195.20 12.08 194.79 11.84L194.79 11.84L194.79 11.84Q194.38 11.59 193.83 11.34L193.83 11.34L193.83 11.34Q193.28 11.09 192.70 10.84L192.70 10.84L192.70 10.84Q191.81 10.44 191.18 10.10L191.18 10.10L191.18 10.10Q190.54 9.76 190.13 9.40L190.13 9.40L190.13 9.40Q189.71 9.04 189.53 8.65L189.53 8.65L189.53 8.65Q189.34 8.26 189.34 7.76L189.34 7.76L189.34 7.76Q189.34 6.97 189.81 6.27L189.81 6.27L189.81 6.27Q190.29 5.57 191.18 5.21L191.18 5.21L191.18 5.21Q191.63 5.01 192.14 4.93L192.14 4.93L192.14 4.93Q192.65 4.84 193.14 4.84L193.14 4.84L193.14 4.84Q194.07 4.84 194.95 5.10L194.95 5.10L194.95 5.10Q195.83 5.35 196.71 5.74ZM206.70 6.69L206.70 6.69L206.70 6.69Q206.14 6.69 205.83 6.38L205.83 6.38L205.83 6.38Q205.53 6.06 205.53 5.61L205.53 5.61L205.53 5.61Q205.53 5.50 205.57 5.35L205.57 5.35L205.57 5.35Q205.60 5.19 205.66 5.08L205.66 5.08L205.66 5.08Q205.84 5.17 206.20 5.20L206.20 5.20L206.20 5.20Q206.56 5.24 207.03 5.24L207.03 5.24L207.03 5.24Q207.75 5.24 208.65 5.17L208.65 5.17L208.65 5.17Q209.55 5.11 210.38 5.04L210.38 5.04L210.38 5.04Q211.20 4.97 211.83 4.91L211.83 4.91L211.83 4.91Q212.46 4.84 212.65 4.84L212.65 4.84L212.65 4.84Q213.16 4.84 213.39 5.23L213.39 5.23L213.39 5.23Q213.63 5.61 213.74 6.26L213.74 6.26L213.74 6.26Q213.37 6.23 213.02 6.21L213.02 6.21L213.02 6.21Q212.66 6.19 212.41 6.19L212.41 6.19L212.41 6.19Q211.96 6.19 211.50 6.22L211.50 6.22L211.50 6.22Q211.05 6.24 210.59 6.30L210.59 6.30L210.59 6.30Q210.39 6.71 210.15 7.26L210.15 7.26L210.15 7.26Q209.92 7.81 209.69 8.41L209.69 8.41L209.69 8.41Q209.45 9.02 209.24 9.61L209.24 9.61L209.24 9.61Q209.03 10.21 208.88 10.68L208.88 10.68L208.88 10.68Q208.57 11.61 208.34 12.39L208.34 12.39L208.34 12.39Q208.11 13.17 207.94 13.85L207.94 13.85L207.94 13.85Q207.76 14.53 207.63 15.15L207.63 15.15L207.63 15.15Q207.51 15.76 207.41 16.35L207.41 16.35L207.41 16.35Q206.47 16.21 205.84 15.18L205.84 15.18L205.84 15.18Q205.95 14.74 206.11 14.23L206.11 14.23L206.11 14.23Q206.28 13.72 206.49 13.07L206.49 13.07L206.49 13.07Q206.71 12.42 207.00 11.59L207.00 11.59L207.00 11.59Q207.30 10.77 207.68 9.72L207.68 9.72L207.68 9.72Q207.82 9.32 207.97 8.90L207.97 8.90L207.97 8.90Q208.12 8.47 208.27 8.05L208.27 8.05L208.27 8.05Q208.42 7.63 208.54 7.24L208.54 7.24L208.54 7.24Q208.66 6.85 208.74 6.52L208.74 6.52L208.74 6.52Q208.15 6.59 207.63 6.64L207.63 6.64L207.63 6.64Q207.10 6.69 206.70 6.69Z"></path></g></svg>