<svg data-v-423bf9ae="" xmlns="http://www.w3.org/2000/svg" viewBox="0 0 254.0784699646576 60" class="font"><!----><!----><!----><g data-v-423bf9ae="" id="5f0be31b-a937-43cf-89ad-c2637161d207" fill="white" transform="matrix(4.441154938483768,0,0,4.441154938483768,-3.153219837908807,-16.16580515723235)"><path d="M0.71 14.35L7.53 14.35L7.53 12.17L7.06 12.17L7.06 13.99L2.42 13.99L2.42 9.41L5.88 9.41L5.88 10.58L6.31 10.58L6.31 7.87L5.88 7.87L5.88 9.04L2.42 9.04L2.42 4.94L6.94 4.94L6.94 6.72L7.42 6.72L7.42 4.58L0.71 4.58L0.71 4.93L1.88 4.93L1.88 14L0.71 14ZM12.25 14.52C13.71 14.52 14.41 13.62 14.78 12.82L14.52 12.67C14.10 13.43 13.50 14.10 12.28 14.10C10.70 14.10 9.70 12.91 9.70 11.13L9.70 10.39C9.70 8.61 10.70 7.42 12.28 7.42C12.89 7.42 13.43 7.50 13.82 7.76L13.82 7.80C13.58 7.88 13.43 8.08 13.43 8.32C13.43 8.61 13.59 8.81 13.92 8.81C14.22 8.81 14.41 8.61 14.41 8.29C14.41 7.63 13.47 7.07 12.25 7.07C10.37 7.07 9.13 8.39 9.13 10.79C9.13 13.20 10.37 14.52 12.25 14.52ZM19.11 14.15C17.49 14.15 16.63 13.01 16.63 11.24L16.63 10.35C16.63 8.58 17.49 7.43 19.11 7.43C20.73 7.43 21.59 8.58 21.59 10.35L21.59 11.24C21.59 13.01 20.73 14.15 19.11 14.15ZM19.11 14.52C21.01 14.52 22.18 13.20 22.18 10.79C22.18 8.39 21.01 7.07 19.11 7.07C17.21 7.07 16.04 8.39 16.04 10.79C16.04 13.20 17.21 14.52 19.11 14.52ZM30.23 14.52C32.35 14.52 33.40 13.43 33.40 11.82C33.40 10.58 32.76 9.70 30.86 9.20L29.95 8.95C28.73 8.62 27.78 8.13 27.78 6.83C27.78 5.53 28.66 4.79 30.27 4.79C31.84 4.79 32.76 5.49 32.76 6.52L32.76 7.41L33.24 7.41L33.24 4.58L32.76 4.58L32.76 5.53L32.70 5.53C32.44 4.98 31.71 4.41 30.27 4.41C28.45 4.41 27.26 5.28 27.26 6.89C27.26 8.15 27.94 8.97 29.82 9.48L30.74 9.73C31.92 10.04 32.89 10.53 32.89 11.91C32.89 13.31 32.00 14.14 30.16 14.14C28.28 14.14 27.64 13.29 27.64 12.21L27.64 11.38L27.16 11.38L27.16 14.35L27.64 14.35L27.64 13.33L27.69 13.33C27.99 13.94 28.64 14.52 30.23 14.52ZM34.80 14.35L37.65 14.35L37.65 14L36.48 14L36.48 9.25C36.48 8.04 37.48 7.46 38.56 7.46C39.89 7.46 40.57 8.20 40.57 9.83L40.57 14L39.41 14L39.41 14.35L42.25 14.35L42.25 14L41.09 14L41.09 9.76C41.09 7.98 40.33 7.07 38.70 7.07C37.44 7.07 36.78 7.70 36.53 8.37L36.48 8.37L36.48 3.64L34.80 3.85L34.80 4.10L35.97 4.20L35.97 14L34.80 14ZM46.54 14.15C44.91 14.15 44.06 13.01 44.06 11.24L44.06 10.35C44.06 8.58 44.91 7.43 46.54 7.43C48.16 7.43 49.01 8.58 49.01 10.35L49.01 11.24C49.01 13.01 48.16 14.15 46.54 14.15ZM46.54 14.52C48.44 14.52 49.60 13.20 49.60 10.79C49.60 8.39 48.44 7.07 46.54 7.07C44.63 7.07 43.47 8.39 43.47 10.79C43.47 13.20 44.63 14.52 46.54 14.52ZM50.95 17.15L54.07 17.15L54.07 16.80L52.63 16.80L52.63 13.19L52.67 13.19C52.96 13.89 53.70 14.52 54.94 14.52C56.78 14.52 57.92 13.26 57.92 10.79C57.92 8.33 56.78 7.07 54.94 7.07C53.72 7.07 52.96 7.70 52.67 8.40L52.63 8.40L52.63 7.13L50.95 7.34L50.95 7.59L52.11 7.69L52.11 16.80L50.95 16.80ZM54.85 14.13C53.70 14.13 52.63 13.43 52.63 12.35L52.63 9.24C52.63 8.16 53.70 7.46 54.85 7.46C56.45 7.46 57.34 8.60 57.34 10.40L57.34 11.19C57.34 12.99 56.45 14.13 54.85 14.13Z"></path></g><!----><!----></svg>